<svg width="72" height="72" viewBox="0 0 72 72" fill="none" xmlns="http://www.w3.org/2000/svg">
<path d="M62.2497 36C61.9747 36.682 61.5022 37.2662 60.8928 37.6778C60.2834 38.0894 59.565 38.3095 58.8297 38.31H13.1397C12.4043 38.3095 11.6859 38.0894 11.0765 37.6778C10.4672 37.2662 9.99467 36.682 9.71966 36C9.44156 35.3228 9.37295 34.5777 9.52269 33.8611C9.67243 33.1444 10.0336 32.4892 10.5597 31.98C10.7134 31.817 10.8966 31.6846 11.0997 31.59L16.4097 28.86L18.1497 13.86C18.1497 13.86 18.1497 13.68 18.1497 13.59C18.3355 12.8161 18.7053 12.0985 19.2275 11.4979C19.7497 10.8973 20.4091 10.4315 21.1497 10.14C21.898 9.81678 22.7122 9.67547 23.5257 9.72761C24.3392 9.77976 25.1287 10.0239 25.8297 10.44L35.5497 16.14C35.6659 16.2149 35.8013 16.2548 35.9397 16.2548C36.078 16.2548 36.2134 16.2149 36.3297 16.14L46.0497 10.44C46.7506 10.0239 47.5401 9.77976 48.3536 9.72761C49.1671 9.67547 49.9813 9.81678 50.7297 10.14C51.4702 10.4315 52.1296 10.8973 52.6518 11.4979C53.1741 12.0985 53.5438 12.8161 53.7297 13.59C53.7297 13.59 53.7297 13.77 53.7297 13.86L55.4697 28.86L60.7497 31.56C60.948 31.6625 61.13 31.7939 61.2897 31.95C61.8421 32.4476 62.2299 33.1017 62.4014 33.8252C62.5729 34.5487 62.52 35.3073 62.2497 36ZM47.9997 42.75C45.8113 42.7583 43.6894 43.5025 41.9753 44.8629C40.2613 46.2232 39.0546 48.1207 38.5497 50.25H33.4497C32.8982 47.9248 31.512 45.8831 29.5543 44.5126C27.5965 43.1421 25.2037 42.5384 22.8302 42.816C20.4566 43.0936 18.2677 44.2333 16.6791 46.0185C15.0905 47.8038 14.2128 50.1103 14.2128 52.5C14.2128 54.8897 15.0905 57.1962 16.6791 58.9815C18.2677 60.7667 20.4566 61.9064 22.8302 62.184C25.2037 62.4616 27.5965 61.8578 29.5543 60.4874C31.512 59.1169 32.8982 57.0752 33.4497 54.75H38.5497C38.9776 56.5236 39.8961 58.1409 41.2001 59.417C42.5041 60.6931 44.1409 61.5764 45.9233 61.9659C47.7057 62.3554 49.5618 62.2354 51.2792 61.6196C52.9966 61.0038 54.5061 59.917 55.6349 58.4836C56.7636 57.0503 57.4662 55.3281 57.6622 53.5142C57.8582 51.7003 57.5397 49.8678 56.7432 48.2264C55.9466 46.5849 54.7042 45.2009 53.158 44.2324C51.6117 43.2639 49.8242 42.7502 47.9997 42.75Z" fill="#D4BD2B"/>
</svg>
