<svg width="32" height="32" viewBox="0 0 32 32" fill="none" xmlns="http://www.w3.org/2000/svg">
<path fill-rule="evenodd" clip-rule="evenodd" d="M4.61967 4.61913C2.66705 6.57175 2.66705 9.71444 2.66705 15.9998C2.66705 22.2852 2.66705 25.4279 4.61967 27.3805C6.5723 29.3332 9.71499 29.3332 16.0004 29.3332C22.2858 29.3332 25.4285 29.3332 27.3811 27.3805C29.3337 25.4279 29.3337 22.2852 29.3337 15.9998C29.3337 9.71444 29.3337 6.57175 27.3811 4.61913C25.4285 2.6665 22.2858 2.6665 16.0004 2.6665C9.71499 2.6665 6.5723 2.6665 4.61967 4.61913ZM21.3337 13.3332C22.8065 13.3332 24.0004 12.1393 24.0004 10.6665C24.0004 9.19374 22.8065 7.99984 21.3337 7.99984C19.861 7.99984 18.6671 9.19374 18.6671 10.6665C18.6671 12.1393 19.861 13.3332 21.3337 13.3332ZM8.42828 17.4715C9.2604 16.6986 10.5603 16.742 11.339 17.5687L14.869 21.3157C15.9349 22.4473 17.6799 22.5997 18.9259 21.6702C19.7434 21.0603 20.8817 21.1296 21.6192 21.8341L24.6429 24.7229C25.0423 25.1044 25.6753 25.09 26.0568 24.6906C26.4383 24.2913 26.4238 23.6583 26.0245 23.2768L23.0008 20.388C21.5575 19.0092 19.3299 18.8736 17.73 20.0671C17.2984 20.3891 16.694 20.3363 16.3248 19.9443L12.7948 16.1972C11.2624 14.5706 8.7046 14.4853 7.06719 16.0061L5.98651 17.0098C5.58185 17.3857 5.5585 18.0184 5.93435 18.4231C6.3102 18.8278 6.94294 18.8511 7.3476 18.4753L8.42828 17.4715Z" fill="#D4BD2B"/>
</svg>
