<svg width="16" height="16" viewBox="0 0 16 16" fill="none" xmlns="http://www.w3.org/2000/svg">
<path d="M8.00007 5.91687C6.8532 5.91687 5.91726 6.85281 5.91726 7.99968C5.91726 9.14656 6.8532 10.0825 8.00007 10.0825C9.14695 10.0825 10.0829 9.14656 10.0829 7.99968C10.0829 6.85281 9.14695 5.91687 8.00007 5.91687ZM14.2469 7.99968C14.2469 7.13718 14.2548 6.2825 14.2063 5.42156C14.1579 4.42156 13.9298 3.53406 13.1985 2.80281C12.4657 2.07 11.5798 1.84343 10.5798 1.795C9.71726 1.74656 8.86257 1.75437 8.00164 1.75437C7.13914 1.75437 6.28445 1.74656 5.42351 1.795C4.42351 1.84343 3.53601 2.07156 2.80476 2.80281C2.07195 3.53562 1.84539 4.42156 1.79695 5.42156C1.74851 6.28406 1.75632 7.13875 1.75632 7.99968C1.75632 8.86062 1.74851 9.71687 1.79695 10.5778C1.84539 11.5778 2.07351 12.4653 2.80476 13.1966C3.53757 13.9294 4.42351 14.1559 5.42351 14.2044C6.28601 14.2528 7.1407 14.245 8.00164 14.245C8.86414 14.245 9.71882 14.2528 10.5798 14.2044C11.5798 14.1559 12.4673 13.9278 13.1985 13.1966C13.9313 12.4637 14.1579 11.5778 14.2063 10.5778C14.2563 9.71687 14.2469 8.86218 14.2469 7.99968ZM8.00007 11.2044C6.22664 11.2044 4.79539 9.77312 4.79539 7.99968C4.79539 6.22625 6.22664 4.795 8.00007 4.795C9.77351 4.795 11.2048 6.22625 11.2048 7.99968C11.2048 9.77312 9.77351 11.2044 8.00007 11.2044ZM11.336 5.41218C10.9219 5.41218 10.5876 5.07781 10.5876 4.66375C10.5876 4.24968 10.9219 3.91531 11.336 3.91531C11.7501 3.91531 12.0844 4.24968 12.0844 4.66375C12.0846 4.76207 12.0653 4.85945 12.0277 4.95031C11.9902 5.04117 11.935 5.12372 11.8655 5.19325C11.796 5.26277 11.7134 5.31789 11.6226 5.35546C11.5317 5.39303 11.4343 5.41231 11.336 5.41218Z" fill="#D4BD2B"/>
</svg>
