<svg width="72" height="72" viewBox="0 0 72 72" fill="none" xmlns="http://www.w3.org/2000/svg">
<path d="M26.25 30V57C26.2421 58.3899 25.6865 59.7207 24.7036 60.7036C23.7207 61.6864 22.39 62.2421 21 62.25H12C10.61 62.2421 9.27926 61.6864 8.29639 60.7036C7.31353 59.7207 6.75788 58.3899 6.75 57V30C6.75788 28.61 7.31353 27.2792 8.29639 26.2964C9.27926 25.3135 10.61 24.7578 12 24.75H21C22.39 24.7578 23.7207 25.3135 24.7036 26.2964C25.6865 27.2792 26.2421 28.61 26.25 30ZM63.57 26.49C63.0724 25.942 62.4657 25.5042 61.7889 25.2046C61.1121 24.9049 60.3802 24.7501 59.64 24.75H48.63L50.61 20.82C51.5337 18.99 51.7537 16.8847 51.2283 14.9033C50.7029 12.922 49.4688 11.2022 47.7598 10.0703C46.0508 8.93839 43.9858 8.47296 41.9565 8.76228C39.9272 9.0516 38.0746 10.0755 36.75 11.64L27.36 22.62C28.4238 23.5329 29.2776 24.6651 29.8627 25.9389C30.4479 27.2128 30.7505 28.5981 30.75 30V57C30.7527 57.7582 30.662 58.5139 30.48 59.25H51.93C54.6878 59.2281 57.341 58.1913 59.3829 56.3375C61.4249 54.4837 62.7125 51.9428 63 49.2L64.74 30.57C64.8416 29.8459 64.79 29.1085 64.5884 28.4057C64.3869 27.7028 64.0399 27.0502 63.57 26.49Z" fill="#D4BD2B"/>
</svg>
