<svg width="135" height="40" viewBox="0 0 135 40" fill="none" xmlns="http://www.w3.org/2000/svg">
<path d="M30.2778 18.3583L30.282 18.3609C31.8701 19.3572 33.5126 20.3325 36.345 21.0002L36.1155 21.9736M30.2778 18.3583L36.1155 21.9736M30.2778 18.3583C30.115 18.2573 29.9356 18.1411 29.7425 18.016M30.2778 18.3583L29.7425 18.016M36.1155 21.9736L36.3416 20.9995C37.8745 21.3553 38.2908 23.3875 37.0224 24.3177C34.679 26.0442 33.5422 27.5885 32.4739 29.1263L32.4731 29.1275C31.9294 29.9078 31.1263 30.9764 29.7176 31.9893C28.3117 33.0001 26.3513 33.9215 23.5205 34.5003C20.6854 35.08 18.5187 35.0025 16.8268 34.6253C15.1317 34.2473 13.9717 33.5805 13.1626 33.0784L13.1584 33.0758C11.5703 32.0795 9.92789 31.1043 7.09548 30.4365L7.32495 29.4632M36.1155 21.9736C36.8158 22.1361 37.0103 23.0876 36.4301 23.512C33.9582 25.3329 32.7478 26.9793 31.6527 28.5558C30.6213 30.036 28.7446 32.4115 23.3202 33.5206C17.8869 34.6316 15.2284 33.1834 13.6899 32.2287C12.0638 31.2086 10.3131 30.1677 7.32495 29.4632M7.32495 29.4632L7.09885 30.4373C5.56543 30.0813 5.14934 28.0478 6.4193 27.1181M7.32495 29.4632C6.62466 29.3006 6.4301 28.3491 7.01039 27.9247M6.4193 27.1181C6.41955 27.1179 6.41981 27.1177 6.42006 27.1176L7.01039 27.9247M6.4193 27.1181C6.41904 27.1183 6.41879 27.1185 6.41853 27.1187L7.01039 27.9247M6.4193 27.1181C6.89419 26.7694 7.32072 26.4277 7.70284 26.0956M7.01039 27.9247C7.69353 27.4231 8.28615 26.9316 8.79758 26.4562C8.44323 26.3636 8.07624 26.2449 7.70284 26.0956M7.70284 26.0956C7.87309 25.9477 8.03453 25.8016 8.1875 25.6576L8.53094 25.3344M7.70284 26.0956L8.53094 25.3344M16.1111 18.6973C16.0881 18.3704 16.0397 18.0341 15.9583 17.7C15.8757 17.7234 15.7892 17.7492 15.7022 17.7779L15.0038 18.0082C15.0671 18.2875 15.1043 18.5753 15.1195 18.8642L15.4222 18.8489L16.0246 18.8184M16.1111 18.6973L13.9647 16.1769M16.1111 18.6973C16.0791 18.7071 16.0472 18.7171 16.0154 18.7276M16.1111 18.6973L16.0154 18.7276M16.0246 18.8184L15.9966 18.8241L15.9924 18.825L15.1255 19.0023C15.2628 22.8172 12.8977 25.24 12.1418 25.5733C12.1415 25.5734 12.1413 25.5735 12.141 25.5736C12.1366 25.5756 12.1321 25.5775 12.1275 25.5794C12.0515 25.6113 11.951 25.6409 11.8292 25.6659C11.2721 25.7803 10.267 25.7991 9.09866 25.5012C8.91316 25.4539 8.72354 25.3986 8.53094 25.3344M16.0246 18.8184C16.0219 18.8051 16.021 18.789 16.02 18.773C16.019 18.757 16.0181 18.741 16.0154 18.7276M16.0246 18.8184C16.0247 18.8198 16.0248 18.8213 16.0249 18.8227C16.0249 18.8229 16.0249 18.8231 16.0249 18.8234C16.2482 23.2767 13.4846 25.9711 12.5078 26.4023C12.5071 26.4026 12.5065 26.4029 12.5058 26.4032L12.458 26.2946L16.0154 18.7276M8.53094 25.3344C7.44266 24.9718 6.25942 24.3259 5.187 23.2368C4.47075 22.5083 3.95002 21.5866 3.9836 20.5655C3.9833 20.5567 3.98235 20.5482 3.98145 20.54C3.98026 20.5293 3.97913 20.5191 3.9796 20.5095M3.9796 20.5095C4.04727 18.628 5.66982 17.4032 7.3182 17.7754M3.9796 20.5095L2.98024 20.4736C2.98026 20.473 2.98028 20.4725 2.9803 20.472M3.9796 20.5095L2.9808 20.4606C2.98061 20.4644 2.98044 20.4682 2.9803 20.472M7.3182 17.7754C7.60272 17.839 7.85663 17.9171 8.08195 18.001C8.1486 17.7312 8.24479 17.4091 8.39321 17.05M7.3182 17.7754L7.53621 16.7995C7.53697 16.7996 7.53772 16.7998 7.53848 16.8M7.3182 17.7754L7.53848 16.8M8.39321 17.05C8.75822 17.1834 9.06061 17.3302 9.30447 17.4635C9.39494 17.2407 9.50901 17.0008 9.6545 16.7482M8.39321 17.05C8.49666 16.7996 8.62548 16.5313 8.78736 16.2501M8.39321 17.05C8.13911 16.9571 7.85466 16.8707 7.53848 16.8M9.6545 16.7482C10.4945 15.2818 12.4939 14.9141 13.9262 16.1361M9.6545 16.7482L8.78794 16.2491C8.78775 16.2494 8.78755 16.2498 8.78736 16.2501M9.6545 16.7482L8.78678 16.2511C8.78697 16.2508 8.78717 16.2504 8.78736 16.2501M13.9262 16.1361C13.9335 16.1422 13.9403 16.1499 13.9474 16.1581C13.9528 16.1643 13.9584 16.1707 13.9647 16.1769M13.9262 16.1361L14.5752 15.3754C14.5744 15.3747 14.5736 15.374 14.5728 15.3733C14.5701 15.371 14.5673 15.3686 14.5644 15.3663L13.9262 16.1361ZM13.9647 16.1769L14.6161 15.4181C14.6325 15.4322 14.6487 15.4464 14.6647 15.4606C14.6804 15.4773 14.6924 15.4909 14.6968 15.4959C14.7063 15.5068 14.7004 15.5 14.6983 15.4977C14.6935 15.4924 14.6817 15.4795 14.6653 15.4633L13.9647 16.1769ZM8.78736 16.2501L2.98255 20.5971C2.98229 20.5935 2.98203 20.5897 2.98179 20.5859C2.9801 20.5593 2.97846 20.5197 2.9803 20.472M7.53848 16.8C5.24485 16.282 3.07008 18.0013 2.9803 20.472M11.8173 7.7437C11.3121 8.73564 11.418 9.81512 11.7021 10.6759L11.7024 10.6766C12.2337 12.282 13.1855 13.4031 14.0995 14.1261C14.5551 14.4866 15.0072 14.753 15.4043 14.9348C15.7731 15.1036 16.1768 15.2374 16.5236 15.2526C16.8704 15.2678 17.2842 15.1699 17.6664 15.034C18.0779 14.8877 18.5515 14.6618 19.037 14.3426C20.0107 13.7024 21.0571 12.6689 21.7268 11.1162L21.7271 11.1155L12.7285 8.15916M11.8173 7.7437C11.8269 7.725 11.8366 7.70634 11.8466 7.68771L12.7285 8.15916M11.8173 7.7437C11.8172 7.74397 11.8171 7.74423 11.817 7.7445C11.8069 7.76885 11.7994 7.7892 11.7971 7.79563L11.797 7.79594C11.7944 7.80303 11.7944 7.80291 11.7952 7.80073C11.7958 7.79914 11.7968 7.79643 11.7975 7.79467C11.8005 7.7868 11.8072 7.76944 11.8172 7.74736L12.7285 8.15916M11.8173 7.7437C11.8272 7.7201 11.8427 7.68514 11.8647 7.64449M12.7285 8.15916C12.7312 8.15312 12.7334 8.14705 12.7355 8.14122C12.7383 8.13358 12.7409 8.12634 12.7444 8.12005M11.8647 7.64449C11.8644 7.64495 11.8642 7.64541 11.864 7.64587L12.7444 8.12005M11.8647 7.64449C12.8168 5.87849 15.0334 5.39251 16.5363 6.6083M11.8647 7.64449C11.8664 7.64125 11.8682 7.63798 11.8701 7.63468L12.7444 8.12005M12.7444 8.12005L16.5363 6.6083M16.5363 6.6083C16.5357 6.60781 16.5351 6.60732 16.5345 6.60683L15.9074 7.38576L16.5363 6.6083ZM29.7425 18.016C29.113 17.6084 28.3381 17.1065 27.5168 16.7277M29.7425 18.016L27.5168 16.7277M27.5168 16.7277C26.4074 16.2161 25.083 15.8571 23.592 16.1212L27.5168 16.7277ZM20.1264 17.9092C19.9459 18.0756 19.7824 18.2403 19.6362 18.397L20.3673 19.0792L20.7676 18.1628C20.5715 18.0772 20.357 17.9907 20.1264 17.9092ZM16.1722 7.6165C16.4837 7.91062 16.6865 8.18916 16.8241 8.39847C16.9796 8.20202 17.2059 7.94229 17.5421 7.67657C17.3865 7.45704 17.176 7.19352 16.889 6.91829C16.579 7.16735 16.3463 7.41145 16.1722 7.6165ZM17.2685 6.63971C17.2682 6.63992 17.2679 6.64014 17.2675 6.64036L17.826 7.46989L17.2695 6.63906C17.2692 6.63927 17.2688 6.63949 17.2685 6.63971ZM21.83 8.0803C21.8286 8.07698 21.8271 8.07362 21.8256 8.07022L20.9126 8.47823L21.8312 8.08295C21.8308 8.08207 21.8304 8.08119 21.83 8.0803ZM21.8691 8.18457C21.8612 8.16508 21.8531 8.14561 21.8448 8.12614L20.925 8.51859L21.8689 8.18829C21.877 8.21129 21.8821 8.22927 21.8844 8.2374C21.8856 8.24158 21.8883 8.25147 21.8848 8.23861L21.8847 8.2383C21.8829 8.23162 21.8773 8.21051 21.8692 8.18512C21.8692 8.18493 21.8691 8.18475 21.8691 8.18457ZM21.8253 26.2094C20.5666 26.4668 19.392 26.4809 18.2998 26.4182C19.2792 25.9311 20.3652 25.4829 21.6241 25.2255C22.8788 24.9689 24.0513 24.9552 25.1424 25.0191C24.1635 25.5054 23.0798 25.9529 21.8253 26.2094Z" stroke="url(#paint0_linear_21_3475)" stroke-width="2"/>
<path d="M30.2778 18.3583L30.282 18.3609C31.8701 19.3572 33.5126 20.3325 36.345 21.0002L36.1155 21.9736M30.2778 18.3583L36.1155 21.9736M30.2778 18.3583C30.115 18.2573 29.9356 18.1411 29.7425 18.016M30.2778 18.3583L29.7425 18.016M36.1155 21.9736L36.3416 20.9995C37.8745 21.3553 38.2908 23.3875 37.0224 24.3177C34.679 26.0442 33.5422 27.5885 32.4739 29.1263L32.4731 29.1275C31.9294 29.9078 31.1263 30.9764 29.7176 31.9893C28.3117 33.0001 26.3513 33.9215 23.5205 34.5003C20.6854 35.08 18.5187 35.0025 16.8268 34.6253C15.1317 34.2473 13.9717 33.5805 13.1626 33.0784L13.1584 33.0758C11.5703 32.0795 9.92789 31.1043 7.09548 30.4365L7.32495 29.4632M36.1155 21.9736C36.8158 22.1361 37.0103 23.0876 36.4301 23.512C33.9582 25.3329 32.7478 26.9793 31.6527 28.5558C30.6213 30.036 28.7446 32.4115 23.3202 33.5206C17.8869 34.6316 15.2284 33.1834 13.6899 32.2287C12.0638 31.2086 10.3131 30.1677 7.32495 29.4632M7.32495 29.4632L7.09885 30.4373C5.56543 30.0813 5.14934 28.0478 6.4193 27.1181M7.32495 29.4632C6.62466 29.3006 6.4301 28.3491 7.01039 27.9247M6.4193 27.1181C6.41955 27.1179 6.41981 27.1177 6.42006 27.1176L7.01039 27.9247M6.4193 27.1181C6.41904 27.1183 6.41879 27.1185 6.41853 27.1187L7.01039 27.9247M6.4193 27.1181C6.89419 26.7694 7.32072 26.4277 7.70284 26.0956M7.01039 27.9247C7.69353 27.4231 8.28615 26.9316 8.79758 26.4562C8.44323 26.3636 8.07624 26.2449 7.70284 26.0956M7.70284 26.0956C7.87309 25.9477 8.03453 25.8016 8.1875 25.6576L8.53094 25.3344M7.70284 26.0956L8.53094 25.3344M16.1111 18.6973C16.0881 18.3704 16.0397 18.0341 15.9583 17.7C15.8757 17.7234 15.7892 17.7492 15.7022 17.7779L15.0038 18.0082C15.0671 18.2875 15.1043 18.5753 15.1195 18.8642L15.4222 18.8489L16.0246 18.8184M16.1111 18.6973L13.9647 16.1769M16.1111 18.6973C16.0791 18.7071 16.0472 18.7171 16.0154 18.7276M16.1111 18.6973L16.0154 18.7276M16.0246 18.8184L15.9966 18.8241L15.9924 18.825L15.1255 19.0023C15.2628 22.8172 12.8977 25.24 12.1418 25.5733C12.1415 25.5734 12.1413 25.5735 12.141 25.5736C12.1366 25.5756 12.1321 25.5775 12.1275 25.5794C12.0515 25.6113 11.951 25.6409 11.8292 25.6659C11.2721 25.7803 10.267 25.7991 9.09866 25.5012C8.91316 25.4539 8.72354 25.3986 8.53094 25.3344M16.0246 18.8184C16.0219 18.8051 16.021 18.789 16.02 18.773C16.019 18.757 16.0181 18.741 16.0154 18.7276M16.0246 18.8184C16.0247 18.8198 16.0248 18.8213 16.0249 18.8227C16.0249 18.8229 16.0249 18.8231 16.0249 18.8234C16.2482 23.2767 13.4846 25.9711 12.5078 26.4023C12.5071 26.4026 12.5065 26.4029 12.5058 26.4032L12.458 26.2946L16.0154 18.7276M8.53094 25.3344C7.44266 24.9718 6.25942 24.3259 5.187 23.2368C4.47075 22.5083 3.95002 21.5866 3.9836 20.5655C3.9833 20.5567 3.98235 20.5482 3.98145 20.54C3.98026 20.5293 3.97913 20.5191 3.9796 20.5095M3.9796 20.5095C4.04727 18.628 5.66982 17.4032 7.3182 17.7754M3.9796 20.5095L2.98024 20.4736C2.98026 20.473 2.98028 20.4725 2.9803 20.472M3.9796 20.5095L2.9808 20.4606C2.98061 20.4644 2.98044 20.4682 2.9803 20.472M7.3182 17.7754C7.60272 17.839 7.85663 17.9171 8.08195 18.001C8.1486 17.7312 8.24479 17.4091 8.39321 17.05M7.3182 17.7754L7.53621 16.7995C7.53697 16.7996 7.53772 16.7998 7.53848 16.8M7.3182 17.7754L7.53848 16.8M8.39321 17.05C8.75822 17.1834 9.06061 17.3302 9.30447 17.4635C9.39494 17.2407 9.50901 17.0008 9.6545 16.7482M8.39321 17.05C8.49666 16.7996 8.62548 16.5313 8.78736 16.2501M8.39321 17.05C8.13911 16.9571 7.85466 16.8707 7.53848 16.8M9.6545 16.7482C10.4945 15.2818 12.4939 14.9141 13.9262 16.1361M9.6545 16.7482L8.78794 16.2491C8.78775 16.2494 8.78755 16.2498 8.78736 16.2501M9.6545 16.7482L8.78678 16.2511C8.78697 16.2508 8.78717 16.2504 8.78736 16.2501M13.9262 16.1361C13.9335 16.1422 13.9403 16.1499 13.9474 16.1581C13.9528 16.1643 13.9584 16.1707 13.9647 16.1769M13.9262 16.1361L14.5752 15.3754C14.5744 15.3747 14.5736 15.374 14.5728 15.3733C14.5701 15.371 14.5673 15.3686 14.5644 15.3663L13.9262 16.1361ZM13.9647 16.1769L14.6161 15.4181C14.6325 15.4322 14.6487 15.4464 14.6647 15.4606C14.6804 15.4773 14.6924 15.4909 14.6968 15.4959C14.7063 15.5068 14.7004 15.5 14.6983 15.4977C14.6935 15.4924 14.6817 15.4795 14.6653 15.4633L13.9647 16.1769ZM8.78736 16.2501L2.98255 20.5971C2.98229 20.5935 2.98203 20.5897 2.98179 20.5859C2.9801 20.5593 2.97846 20.5197 2.9803 20.472M7.53848 16.8C5.24485 16.282 3.07008 18.0013 2.9803 20.472M11.8173 7.7437C11.3121 8.73564 11.418 9.81512 11.7021 10.6759L11.7024 10.6766C12.2337 12.282 13.1855 13.4031 14.0995 14.1261C14.5551 14.4866 15.0072 14.753 15.4043 14.9348C15.7731 15.1036 16.1768 15.2374 16.5236 15.2526C16.8704 15.2678 17.2842 15.1699 17.6664 15.034C18.0779 14.8877 18.5515 14.6618 19.037 14.3426C20.0107 13.7024 21.0571 12.6689 21.7268 11.1162L21.7271 11.1155L12.7285 8.15916M11.8173 7.7437C11.8269 7.725 11.8366 7.70634 11.8466 7.68771L12.7285 8.15916M11.8173 7.7437C11.8172 7.74397 11.8171 7.74423 11.817 7.7445C11.8069 7.76885 11.7994 7.7892 11.7971 7.79563L11.797 7.79594C11.7944 7.80303 11.7944 7.80291 11.7952 7.80073C11.7958 7.79914 11.7968 7.79643 11.7975 7.79467C11.8005 7.7868 11.8072 7.76944 11.8172 7.74736L12.7285 8.15916M11.8173 7.7437C11.8272 7.7201 11.8427 7.68514 11.8647 7.64449M12.7285 8.15916C12.7312 8.15312 12.7334 8.14705 12.7355 8.14122C12.7383 8.13358 12.7409 8.12634 12.7444 8.12005M11.8647 7.64449C11.8644 7.64495 11.8642 7.64541 11.864 7.64587L12.7444 8.12005M11.8647 7.64449C12.8168 5.87849 15.0334 5.39251 16.5363 6.6083M11.8647 7.64449C11.8664 7.64125 11.8682 7.63798 11.8701 7.63468L12.7444 8.12005M12.7444 8.12005L16.5363 6.6083M16.5363 6.6083C16.5357 6.60781 16.5351 6.60732 16.5345 6.60683L15.9074 7.38576L16.5363 6.6083ZM29.7425 18.016C29.113 17.6084 28.3381 17.1065 27.5168 16.7277M29.7425 18.016L27.5168 16.7277M27.5168 16.7277C26.4074 16.2161 25.083 15.8571 23.592 16.1212L27.5168 16.7277ZM20.1264 17.9092C19.9459 18.0756 19.7824 18.2403 19.6362 18.397L20.3673 19.0792L20.7676 18.1628C20.5715 18.0772 20.357 17.9907 20.1264 17.9092ZM16.1722 7.6165C16.4837 7.91062 16.6865 8.18916 16.8241 8.39847C16.9796 8.20202 17.2059 7.94229 17.5421 7.67657C17.3865 7.45704 17.176 7.19352 16.889 6.91829C16.579 7.16735 16.3463 7.41145 16.1722 7.6165ZM17.2685 6.63971C17.2682 6.63992 17.2679 6.64014 17.2675 6.64036L17.826 7.46989L17.2695 6.63906C17.2692 6.63927 17.2688 6.63949 17.2685 6.63971ZM21.83 8.0803C21.8286 8.07698 21.8271 8.07362 21.8256 8.07022L20.9126 8.47823L21.8312 8.08295C21.8308 8.08207 21.8304 8.08119 21.83 8.0803ZM21.8691 8.18457C21.8612 8.16508 21.8531 8.14561 21.8448 8.12614L20.925 8.51859L21.8689 8.18829C21.877 8.21129 21.8821 8.22927 21.8844 8.2374C21.8856 8.24158 21.8883 8.25147 21.8848 8.23861L21.8847 8.2383C21.8829 8.23162 21.8773 8.21051 21.8692 8.18512C21.8692 8.18493 21.8691 8.18475 21.8691 8.18457ZM21.8253 26.2094C20.5666 26.4668 19.392 26.4809 18.2998 26.4182C19.2792 25.9311 20.3652 25.4829 21.6241 25.2255C22.8788 24.9689 24.0513 24.9552 25.1424 25.0191C24.1635 25.5054 23.0798 25.9529 21.8253 26.2094Z" stroke="url(#paint1_linear_21_3475)" stroke-width="2"/>
<path d="M49.8147 28V11.2H53.0547L60.7827 22.768V11.2H64.0227V28H60.7827L53.0547 16.456V28H49.8147ZM71.4528 28.288C70.3168 28.288 69.2848 28.024 68.3568 27.496C67.4448 26.968 66.7168 26.232 66.1728 25.288C65.6288 24.344 65.3568 23.264 65.3568 22.048C65.3568 20.816 65.6288 19.736 66.1728 18.808C66.7168 17.864 67.4528 17.128 68.3808 16.6C69.3088 16.072 70.3408 15.808 71.4768 15.808C72.6288 15.808 73.6688 16.072 74.5968 16.6C75.5248 17.128 76.2528 17.864 76.7808 18.808C77.3248 19.736 77.5968 20.816 77.5968 22.048C77.5968 23.28 77.3248 24.368 76.7808 25.312C76.2368 26.24 75.5008 26.968 74.5728 27.496C73.6608 28.024 72.6208 28.288 71.4528 28.288ZM71.4768 25.48C71.9888 25.48 72.4528 25.352 72.8688 25.096C73.3008 24.84 73.6448 24.456 73.9008 23.944C74.1728 23.432 74.3088 22.8 74.3088 22.048C74.3088 21.28 74.1808 20.648 73.9248 20.152C73.6688 19.64 73.3248 19.256 72.8928 19C72.4768 18.744 72.0128 18.616 71.5008 18.616C70.9888 18.616 70.5168 18.744 70.0848 19C69.6528 19.256 69.3088 19.64 69.0528 20.152C68.7968 20.648 68.6688 21.28 68.6688 22.048C68.6688 22.8 68.7968 23.432 69.0528 23.944C69.3088 24.456 69.6448 24.84 70.0608 25.096C70.4928 25.352 70.9648 25.48 71.4768 25.48ZM86.5823 28.288C84.8863 28.288 83.4303 27.928 82.2143 27.208C80.9983 26.472 80.0623 25.456 79.4063 24.16C78.7503 22.848 78.4223 21.336 78.4223 19.624C78.4223 17.912 78.7503 16.4 79.4063 15.088C80.0623 13.776 80.9983 12.752 82.2143 12.016C83.4303 11.28 84.8863 10.912 86.5823 10.912C88.6303 10.912 90.3023 11.416 91.5983 12.424C92.8943 13.432 93.7023 14.856 94.0223 16.696H90.4703C90.2623 15.8 89.8303 15.104 89.1743 14.608C88.5183 14.096 87.6463 13.84 86.5583 13.84C85.5503 13.84 84.6783 14.08 83.9423 14.56C83.2223 15.024 82.6703 15.688 82.2863 16.552C81.9023 17.4 81.7103 18.424 81.7103 19.624C81.7103 20.808 81.9023 21.832 82.2863 22.696C82.6703 23.56 83.2223 24.224 83.9423 24.688C84.6783 25.152 85.5503 25.384 86.5583 25.384C87.6463 25.384 88.5183 25.152 89.1743 24.688C89.8303 24.208 90.2623 23.544 90.4703 22.696H94.0223C93.7023 24.44 92.8943 25.808 91.5983 26.8C90.3023 27.792 88.6303 28.288 86.5823 28.288ZM95.228 28V10.72H98.468V28H95.228ZM105.852 28.288C104.716 28.288 103.684 28.024 102.756 27.496C101.844 26.968 101.116 26.232 100.572 25.288C100.028 24.344 99.7555 23.264 99.7555 22.048C99.7555 20.816 100.028 19.736 100.572 18.808C101.116 17.864 101.852 17.128 102.78 16.6C103.708 16.072 104.74 15.808 105.876 15.808C107.028 15.808 108.068 16.072 108.996 16.6C109.924 17.128 110.652 17.864 111.18 18.808C111.724 19.736 111.996 20.816 111.996 22.048C111.996 23.28 111.724 24.368 111.18 25.312C110.636 26.24 109.9 26.968 108.972 27.496C108.06 28.024 107.02 28.288 105.852 28.288ZM105.876 25.48C106.388 25.48 106.852 25.352 107.268 25.096C107.7 24.84 108.044 24.456 108.3 23.944C108.572 23.432 108.708 22.8 108.708 22.048C108.708 21.28 108.58 20.648 108.324 20.152C108.068 19.64 107.724 19.256 107.292 19C106.876 18.744 106.412 18.616 105.9 18.616C105.388 18.616 104.916 18.744 104.484 19C104.052 19.256 103.708 19.64 103.452 20.152C103.196 20.648 103.068 21.28 103.068 22.048C103.068 22.8 103.196 23.432 103.452 23.944C103.708 24.456 104.044 24.84 104.46 25.096C104.892 25.352 105.364 25.48 105.876 25.48ZM118.232 28C117.384 28 116.64 27.872 116 27.616C115.376 27.344 114.888 26.904 114.536 26.296C114.184 25.672 114.008 24.824 114.008 23.752V18.808H111.968V16.096H114.008L114.368 12.856H117.248V16.096H120.416V18.808H117.248V23.8C117.248 24.344 117.368 24.72 117.608 24.928C117.848 25.136 118.256 25.24 118.832 25.24H120.344V28H118.232ZM121.611 28V10.72H124.851V17.872C125.235 17.248 125.763 16.752 126.435 16.384C127.107 16 127.891 15.808 128.787 15.808C129.779 15.808 130.619 16.024 131.307 16.456C131.995 16.872 132.515 17.488 132.867 18.304C133.235 19.12 133.419 20.128 133.419 21.328V28H130.203V21.616C130.203 20.624 130.003 19.864 129.603 19.336C129.219 18.808 128.587 18.544 127.707 18.544C127.163 18.544 126.675 18.68 126.243 18.952C125.811 19.208 125.467 19.584 125.211 20.08C124.971 20.56 124.851 21.152 124.851 21.856V28H121.611Z" fill="url(#paint2_linear_21_3475)"/>
<defs>
<linearGradient id="paint0_linear_21_3475" x1="-4.24215" y1="39.8054" x2="50.1887" y2="-6.07827" gradientUnits="userSpaceOnUse">
<stop stop-color="#D4BD2B"/>
<stop offset="1" stop-color="#060505"/>
</linearGradient>
<linearGradient id="paint1_linear_21_3475" x1="4.43839" y1="23.1819" x2="35.5616" y2="16.8181" gradientUnits="userSpaceOnUse">
<stop stop-color="#D4BD2B"/>
<stop offset="1" stop-color="#EA870B"/>
</linearGradient>
<linearGradient id="paint2_linear_21_3475" x1="91.5" y1="4" x2="91.5" y2="36" gradientUnits="userSpaceOnUse">
<stop stop-color="#D1D1D1"/>
<stop offset="1" stop-color="#7D7C62"/>
</linearGradient>
</defs>
</svg>
