<svg width="32" height="32" viewBox="0 0 32 32" fill="none" xmlns="http://www.w3.org/2000/svg">
<path d="M9 18.6667V26.6667C8.9965 27.2844 8.74954 27.8759 8.31271 28.3127C7.87589 28.7495 7.28443 28.9965 6.66667 29H5.33333C4.71557 28.9965 4.12411 28.7495 3.68729 28.3127C3.25046 27.8759 3.0035 27.2844 3 26.6667V18.6667C3.0035 18.0489 3.25046 17.4574 3.68729 17.0206C4.12411 16.5838 4.71557 16.3368 5.33333 16.3333H6.66667C7.28443 16.3368 7.87589 16.5838 8.31271 17.0206C8.74954 17.4574 8.9965 18.0489 9 18.6667ZM27.6667 19.3067C27.1717 18.9651 26.6005 18.75 26.0031 18.6802C25.4057 18.6105 24.8004 18.6882 24.24 18.9067L22.8267 19.72C21.2993 20.4865 19.6824 21.0598 18.0133 21.4267H14.6667C14.4014 21.4267 14.1471 21.3213 13.9596 21.1338C13.772 20.9462 13.6667 20.6919 13.6667 20.4267C13.6667 20.1614 13.772 19.9071 13.9596 19.7196C14.1471 19.532 14.4014 19.4267 14.6667 19.4267H17.9467C18.2174 19.4448 18.4875 19.3839 18.7242 19.2513C18.9609 19.1187 19.154 18.9203 19.28 18.68C18.9624 18.092 18.4615 17.6238 17.8533 17.3467C17.6345 17.2493 17.4068 17.1734 17.1733 17.12C15.0337 16.6613 12.8277 16.6025 10.6667 16.9467C10.7488 17.1307 10.8113 17.3229 10.8533 17.52C10.9725 17.8904 11.031 18.2776 11.0267 18.6667V26.6667C11.0316 27.1538 10.9457 27.6377 10.7733 28.0933L16.92 28.6933C17.2486 28.7129 17.5781 28.7129 17.9067 28.6933C19.7146 28.703 21.4888 28.204 23.0267 27.2533L27.12 24.7067C27.6781 24.4566 28.1536 24.0532 28.4911 23.5433C28.8287 23.0334 29.0144 22.4381 29.0267 21.8267C29.0125 21.3221 28.8751 20.8287 28.6264 20.3894C28.3777 19.9502 28.0254 19.5784 27.6 19.3067H27.6667ZM22.3333 9.33333C22.3333 10.5859 21.9619 11.8104 21.266 12.8519C20.5701 13.8935 19.5809 14.7052 18.4237 15.1846C17.2664 15.6639 15.993 15.7893 14.7644 15.545C13.5359 15.3006 12.4074 14.6974 11.5217 13.8117C10.6359 12.9259 10.0327 11.7975 9.78836 10.5689C9.54399 9.34036 9.66941 8.06694 10.1488 6.90967C10.6281 5.75241 11.4399 4.76327 12.4814 4.06736C13.5229 3.37144 14.7474 3 16 3C17.6797 3 19.2906 3.66726 20.4783 4.85499C21.6661 6.04272 22.3333 7.65363 22.3333 9.33333ZM15.3333 8.44C15.3367 8.38223 15.3621 8.32794 15.4043 8.28827C15.4464 8.24861 15.5021 8.22657 15.56 8.22667H17.3333C17.5101 8.22667 17.6797 8.15643 17.8047 8.0314C17.9298 7.90638 18 7.73681 18 7.56C18 7.38319 17.9298 7.21362 17.8047 7.0886C17.6797 6.96357 17.5101 6.89333 17.3333 6.89333H16.6667V6.66667C16.6667 6.48986 16.5964 6.32029 16.4714 6.19526C16.3464 6.07024 16.1768 6 16 6C15.8232 6 15.6536 6.07024 15.5286 6.19526C15.4036 6.32029 15.3333 6.48986 15.3333 6.66667V6.93333C14.9586 7.00254 14.6225 7.20769 14.3897 7.50942C14.1569 7.81115 14.0437 8.18821 14.0717 8.56829C14.0998 8.94837 14.2673 9.30469 14.5419 9.56891C14.8166 9.83313 15.1791 9.98664 15.56 10H16.44C16.4991 10.0032 16.5549 10.0281 16.5967 10.0699C16.6386 10.1118 16.6635 10.1676 16.6667 10.2267C16.6633 10.2844 16.6379 10.3387 16.5957 10.3784C16.5536 10.4181 16.4979 10.4401 16.44 10.44H14.6667C14.4899 10.44 14.3203 10.5102 14.1953 10.6353C14.0702 10.7603 14 10.9299 14 11.1067C14 11.2835 14.0702 11.453 14.1953 11.5781C14.3203 11.7031 14.4899 11.7733 14.6667 11.7733H15.3333V12C15.3333 12.1768 15.4036 12.3464 15.5286 12.4714C15.6536 12.5964 15.8232 12.6667 16 12.6667C16.1768 12.6667 16.3464 12.5964 16.4714 12.4714C16.5964 12.3464 16.6667 12.1768 16.6667 12V11.7333C17.0414 11.6641 17.3775 11.459 17.6103 11.1572C17.8431 10.8555 17.9563 10.4785 17.9283 10.0984C17.9002 9.7183 17.7327 9.36198 17.4581 9.09775C17.1834 8.83354 16.8209 8.68002 16.44 8.66667H15.56C15.5009 8.66347 15.4451 8.63856 15.4033 8.59672C15.3614 8.55489 15.3365 8.49908 15.3333 8.44Z" fill="#D4BD2B"/>
</svg>
