<svg width="25" height="24" viewBox="0 0 25 24" fill="none" xmlns="http://www.w3.org/2000/svg">
<path fill-rule="evenodd" clip-rule="evenodd" d="M23.128 1.95996C23.069 1.66296 22.837 1.43096 22.54 1.37196C22.54 1.37196 16.213 0.0649638 10.325 5.95296C6.87096 9.40696 7.12196 13.092 7.12196 13.092C7.13296 13.276 7.21096 13.449 7.34096 13.579L10.921 17.159C11.051 17.289 11.224 17.367 11.408 17.378C11.408 17.378 15.093 17.629 18.547 14.175C24.435 8.28696 23.128 1.95996 23.128 1.95996ZM12.579 12.982L13.772 11.788C14.065 11.496 14.065 11.02 13.772 10.728C13.48 10.435 13.004 10.435 12.712 10.728L11.518 11.921C11.225 12.214 11.225 12.689 11.518 12.982C11.811 13.275 12.286 13.275 12.579 12.982ZM18.547 5.95296C17.595 5.00196 16.05 5.00196 15.099 5.95296C14.147 6.90496 14.147 8.44996 15.099 9.40096C16.05 10.353 17.595 10.353 18.547 9.40096C19.498 8.44996 19.498 6.90496 18.547 5.95296ZM17.486 7.01396C17.852 7.37996 17.852 7.97496 17.486 8.34096C17.12 8.70696 16.525 8.70696 16.159 8.34096C15.793 7.97496 15.793 7.37996 16.159 7.01396C16.525 6.64796 17.12 6.64796 17.486 7.01396Z" fill="#0A0A0A"/>
<path fill-rule="evenodd" clip-rule="evenodd" d="M6.37391 13.954C6.22391 14.057 6.08091 14.175 5.94791 14.308C4.30191 15.955 1.81091 21.705 1.81091 21.705C1.68991 21.986 1.75291 22.313 1.96991 22.53C2.18691 22.747 2.51391 22.81 2.79491 22.689C2.79491 22.689 8.54491 20.198 10.1919 18.552C10.3249 18.419 10.4429 18.276 10.5459 18.126C10.4259 18.054 10.3149 17.967 10.2139 17.866L6.63391 14.286C6.53291 14.185 6.44591 14.074 6.37391 13.954Z" fill="#0A0A0A"/>
<path fill-rule="evenodd" clip-rule="evenodd" d="M18.601 15.494C15.646 18.084 12.673 18.365 11.689 18.382L11.313 20.262C11.258 20.535 11.36 20.816 11.576 20.991C11.792 21.166 12.088 21.208 12.344 21.098L16.681 19.239C17.694 18.805 18.387 17.851 18.487 16.753L18.601 15.494Z" fill="#0A0A0A"/>
<path fill-rule="evenodd" clip-rule="evenodd" d="M9.00588 5.89899L7.74688 6.01299C6.64888 6.11299 5.69488 6.80599 5.26088 7.81899L3.40188 12.156C3.29188 12.412 3.33388 12.708 3.50888 12.924C3.68388 13.14 3.96488 13.242 4.23788 13.187L6.11888 12.811C6.13588 11.816 6.41988 8.84899 9.00588 5.89899Z" fill="#0A0A0A"/>
</svg>
