<svg width="24" height="24" viewBox="0 0 24 24" fill="none" xmlns="http://www.w3.org/2000/svg">
<path d="M19.9359 9.98703C19.7962 9.57119 19.4471 9.27286 19.0233 9.20783L14.9237 8.57866L13.0863 4.68041C12.8947 4.26914 12.4994 4.01416 12.0556 4.01416C11.6118 4.01416 11.2165 4.26971 11.0248 4.67927L9.18695 8.57923L5.08734 9.20841C4.66409 9.27343 4.31442 9.57233 4.17467 9.9876C4.03092 10.416 4.13531 10.882 4.44676 11.2026L7.43005 14.2726L6.72501 18.6146C6.65086 19.0721 6.83568 19.5182 7.20816 19.78C7.4021 19.9163 7.62685 19.9854 7.85274 19.9854C8.03926 19.9854 8.22579 19.938 8.39749 19.8433L12.0459 17.8081L15.7143 19.8433C16.093 20.0538 16.5488 20.0293 16.903 19.78C17.2755 19.5187 17.4603 19.0721 17.3862 18.6152L16.6811 14.2732L19.6644 11.2032C19.9759 10.8826 20.0803 10.4171 19.9365 9.98817L19.9359 9.98703Z" fill="url(#paint0_linear_21_4999)"/>
<defs>
<linearGradient id="paint0_linear_21_4999" x1="4.11118" y1="11.9999" x2="20" y2="11.9999" gradientUnits="userSpaceOnUse">
<stop stop-color="#D4BD2B"/>
<stop offset="1" stop-color="#EA870B"/>
</linearGradient>
</defs>
</svg>
