<svg width="16" height="16" viewBox="0 0 16 16" fill="none" xmlns="http://www.w3.org/2000/svg">
<path d="M14.974 4.0013C14.4607 4.23464 13.9073 4.38797 13.334 4.4613C13.9207 4.10797 14.374 3.54797 14.5873 2.87464C14.034 3.20797 13.4207 3.4413 12.774 3.57464C12.2473 3.0013 11.5073 2.66797 10.6673 2.66797C9.10068 2.66797 7.82068 3.94797 7.82068 5.52797C7.82068 5.75464 7.84734 5.97464 7.89401 6.1813C5.52068 6.0613 3.40734 4.9213 2.00068 3.19464C1.75401 3.61464 1.61401 4.10797 1.61401 4.62797C1.61401 5.6213 2.11401 6.5013 2.88734 7.0013C2.41401 7.0013 1.97401 6.86797 1.58734 6.66797V6.68797C1.58734 8.07464 2.57401 9.23464 3.88068 9.49464C3.46124 9.60993 3.0207 9.6259 2.59401 9.5413C2.77508 10.1096 3.1297 10.6069 3.60802 10.9633C4.08634 11.3196 4.66431 11.5171 5.26068 11.528C4.24979 12.3283 2.99668 12.7609 1.70734 12.7546C1.48068 12.7546 1.25401 12.7413 1.02734 12.7146C2.29401 13.528 3.80068 14.0013 5.41401 14.0013C10.6673 14.0013 13.554 9.6413 13.554 5.8613C13.554 5.73464 13.554 5.61464 13.5473 5.48797C14.1073 5.08797 14.5873 4.5813 14.974 4.0013Z" fill="#D4BD2B"/>
</svg>
