<svg width="32" height="32" viewBox="0 0 32 32" fill="none" xmlns="http://www.w3.org/2000/svg">
<path d="M8.00001 10C8.00001 8.61553 8.41055 7.26216 9.17972 6.11101C9.94889 4.95987 11.0421 4.06266 12.3212 3.53285C13.6003 3.00303 15.0078 2.86441 16.3656 3.13451C17.7235 3.4046 18.9708 4.07129 19.9498 5.05026C20.9287 6.02922 21.5954 7.2765 21.8655 8.63437C22.1356 9.99224 21.997 11.3997 21.4672 12.6788C20.9373 13.9579 20.0401 15.0511 18.889 15.8203C17.7379 16.5895 16.3845 17 15 17C13.1446 16.9965 11.3661 16.2578 10.0542 14.9459C8.74216 13.6339 8.00353 11.8554 8.00001 10ZM29.3333 22.6667C29.3333 23.9193 28.9619 25.1438 28.266 26.1853C27.5701 27.2268 26.5809 28.0385 25.4237 28.5179C24.2664 28.9973 22.993 29.1227 21.7644 28.8783C20.5359 28.6339 19.4074 28.0307 18.5217 27.145C17.6359 26.2593 17.0327 25.1308 16.7884 23.9022C16.544 22.6737 16.6694 21.4003 17.1488 20.243C17.6281 19.0857 18.4399 18.0966 19.4814 17.4007C20.5229 16.7048 21.7474 16.3333 23 16.3333C23.8317 16.3333 24.6553 16.4972 25.4237 16.8154C26.1921 17.1337 26.8902 17.6002 27.4784 18.1883C28.0665 18.7764 28.533 19.4746 28.8512 20.243C29.1695 21.0114 29.3333 21.835 29.3333 22.6667ZM25.9067 22.6667C25.9067 22.4015 25.8013 22.1471 25.6138 21.9596C25.4262 21.772 25.1719 21.6667 24.9067 21.6667H23.9067V20.6667C23.9067 20.4015 23.8013 20.1471 23.6138 19.9596C23.4262 19.772 23.1719 19.6667 22.9067 19.6667C22.6415 19.6667 22.3871 19.772 22.1996 19.9596C22.012 20.1471 21.9067 20.4015 21.9067 20.6667V21.6667H20.9067C20.6415 21.6667 20.3871 21.772 20.1996 21.9596C20.012 22.1471 19.9067 22.4015 19.9067 22.6667C19.9067 22.9319 20.012 23.1862 20.1996 23.3738C20.3871 23.5613 20.6415 23.6667 20.9067 23.6667H21.9067V24.6667C21.9067 24.9319 22.012 25.1862 22.1996 25.3738C22.3871 25.5613 22.6415 25.6667 22.9067 25.6667C23.1719 25.6667 23.4262 25.5613 23.6138 25.3738C23.8013 25.1862 23.9067 24.9319 23.9067 24.6667V23.6667H24.9067C25.1696 23.6632 25.4205 23.5563 25.6052 23.3691C25.7898 23.1819 25.8934 22.9296 25.8933 22.6667H25.9067ZM16.08 18.0267C15.9896 17.9122 15.874 17.8201 15.7422 17.7576C15.6103 17.6952 15.4659 17.6641 15.32 17.6667H11.8267C9.83258 17.6748 7.8948 18.3288 6.30356 19.5307C4.71232 20.7325 3.55327 22.4175 3.00001 24.3333C2.84813 24.879 2.82428 25.4525 2.93032 26.0089C3.03636 26.5653 3.26942 27.0898 3.61135 27.5414C3.95329 27.993 4.39486 28.3596 4.90168 28.6126C5.4085 28.8656 5.96689 28.9982 6.53334 29H16.16C16.2998 29.0011 16.4383 28.9732 16.5668 28.9181C16.6953 28.863 16.811 28.782 16.9067 28.68C16.9557 28.6165 17.0002 28.5497 17.04 28.48C15.6968 27.1173 14.8661 25.3321 14.6887 23.427C14.5113 21.5218 14.9981 19.6139 16.0667 18.0267H16.08Z" fill="#D4BD2B"/>
</svg>
